<svg version="1.1" id="Layer_1" xmlns="http://www.w3.org/2000/svg" xmlns:xlink="http://www.w3.org/1999/xlink" x="0px" y="0px"
	 width="100%" viewBox="0 0 592 624" enable-background="new 0 0 592 624" xml:space="preserve">
<path fill="#000000" opacity="1.000000" stroke="none" 
	d="
M420.930359,415.012878 
	C401.862427,426.033691 381.800903,431.276215 360.015228,430.402130 
	C346.040588,429.841431 332.022736,430.443787 318.029327,430.214813 
	C313.639832,430.143005 311.825256,431.614166 312.300446,435.953705 
	C312.426666,437.106049 312.432922,438.298218 312.295898,439.448456 
	C311.287201,447.915985 312.772858,454.828094 320.242737,460.744141 
	C326.761780,465.907135 329.277161,474.084534 329.266327,482.685944 
	C329.229828,511.680023 329.575409,540.679199 329.133942,569.666626 
	C328.827942,589.757874 315.995483,603.845276 295.915314,604.482971 
	C277.308502,605.074036 262.163879,592.980225 261.023438,572.605408 
	C259.861084,551.838928 260.551361,530.960938 260.682068,510.133423 
	C260.738464,501.147003 260.158173,492.180023 260.571930,483.173676 
	C261.105988,471.548676 265.668427,462.332031 275.081696,455.575409 
	C277.089600,454.134186 277.789093,452.443481 277.735016,450.082520 
	C277.635864,445.752563 277.735535,441.418304 277.726837,437.085907 
	C277.713379,430.362244 277.684570,430.320404 271.124695,430.313477 
	C255.294601,430.296753 239.463531,430.190918 223.634583,430.324707 
	C199.710663,430.526947 178.488358,422.551422 159.601013,408.485657 
	C137.393219,391.947021 123.069717,369.714233 116.970390,342.824036 
	C105.761505,293.407318 128.182388,241.525009 175.070312,216.855957 
	C191.592117,208.163361 209.259430,203.941376 227.839752,203.882553 
	C273.163391,203.739059 318.496582,203.262650 363.809357,203.975769 
	C408.238831,204.674973 448.305450,229.848846 466.430603,272.792206 
	C473.124237,288.651306 477.125031,305.235718 475.910767,322.299408 
	C473.086639,361.987427 455.262817,393.318115 420.930359,415.012878 
M156.255463,285.715088 
	C148.527618,302.587646 147.373352,320.204712 152.307556,337.791290 
	C160.486084,366.941193 179.722504,385.306183 209.069595,393.188324 
	C220.232468,396.186462 231.566574,395.446716 242.835236,395.504852 
	C283.481384,395.714630 324.130157,395.735687 364.775909,395.493896 
	C376.017792,395.427032 386.816010,392.531586 397.002747,387.544189 
	C431.519928,370.644745 448.776611,331.375549 436.020782,291.524445 
	C427.302216,264.286377 397.453217,239.874802 366.215179,240.064606 
	C319.053253,240.351166 271.888062,240.141571 224.724380,240.064224 
	C216.828384,240.051270 209.218796,241.104218 201.737350,243.779022 
	C180.878601,251.236588 165.824982,264.927307 156.255463,285.715088 
z"/>
<path fill="#000000" opacity="1.000000" stroke="none" 
	d="
M54.643288,148.631958 
	C67.610291,136.668091 82.782356,131.166611 99.892807,131.005020 
	C118.555367,130.828751 137.221634,130.867798 155.884995,130.997772 
	C181.984344,131.179550 201.921173,142.283554 215.342224,164.863800 
	C216.762680,167.253677 216.972229,170.346176 219.481049,172.168488 
	C221.580414,171.788742 223.154755,170.738785 224.324295,168.910629 
	C223.736145,166.617477 221.725433,165.513657 220.235641,164.052155 
	C187.112595,131.558136 195.915848,77.369797 237.690536,57.109756 
	C246.026581,53.066917 254.931046,50.903675 264.199554,50.844696 
	C284.362518,50.716381 304.532806,50.489990 324.689270,50.872616 
	C361.276917,51.567154 389.403442,79.587234 390.004272,116.142746 
	C390.320404,135.378815 383.279144,151.894821 368.970001,165.076447 
	C367.779236,166.173401 366.183502,166.965149 365.739410,168.868408 
	C366.637115,170.812820 368.518677,171.485107 370.996979,172.565720 
	C373.071716,168.125259 375.286713,163.741638 378.058624,159.678558 
	C390.972107,140.750122 409.163940,131.537247 431.732635,131.055801 
	C450.721527,130.650726 469.727020,130.844757 488.723236,131.003738 
	C515.846069,131.230713 536.508362,142.635925 549.128540,167.079239 
	C563.121460,194.181412 555.766785,227.847031 534.240723,245.850616 
	C533.624146,246.366272 533.160461,247.064728 532.661316,247.636902 
	C533.144592,249.873627 535.039062,250.526978 536.442017,251.585876 
	C552.534302,263.731567 560.759766,280.186951 563.302551,299.899933 
	C564.675110,310.540314 564.171204,321.202606 563.979675,331.842224 
	C563.701172,347.315521 556.898804,355.164795 539.745300,359.630951 
	C522.020203,364.245880 504.071625,367.741638 485.601593,367.333130 
	C484.269836,367.303680 482.935150,367.310455 481.608154,367.213684 
	C481.144745,367.179901 480.700378,366.884552 480.019928,366.620392 
	C479.757843,363.388306 481.356018,360.592926 482.192902,357.645935 
	C482.781921,355.571716 483.661957,353.577026 484.201080,351.492279 
	C486.795105,341.461365 487.074432,341.055511 497.556183,340.891113 
	C509.144836,340.709351 520.225952,337.748627 531.426514,335.329071 
	C536.292542,334.277924 538.290649,331.797272 537.885315,326.625885 
	C537.145447,317.186829 538.802246,307.628845 536.835815,298.232971 
	C533.366943,281.657837 523.256104,270.969635 507.564392,265.042206 
	C499.021179,261.815094 490.216248,262.163971 481.414337,262.368286 
	C477.576416,262.457367 475.228912,261.300201 473.648834,257.665558 
	C470.666809,250.805878 465.992401,244.889053 461.946594,238.821564 
	C463.728485,236.013641 466.110962,236.918243 468.115936,236.864334 
	C479.580170,236.556152 491.143677,237.622177 502.422424,234.705917 
	C519.963013,230.170639 532.677856,210.344711 530.079163,192.526535 
	C527.534241,175.077454 517.936401,163.887436 501.429047,158.224716 
	C497.848114,156.996307 494.202545,157.083542 490.563446,157.074631 
	C471.399445,157.027725 452.227264,157.432556 433.073181,157.001755 
	C412.354553,156.535751 398.396088,170.782974 393.578674,187.504303 
	C391.677917,194.101959 391.764771,193.912827 384.627533,192.685471 
	C375.911346,191.186554 367.078796,190.916718 358.244995,191.221771 
	C354.668457,191.345291 351.431335,190.738083 348.217072,188.938065 
	C340.513000,184.623749 332.148712,182.824463 323.287781,182.882324 
	C304.791016,183.003098 286.292816,182.961655 267.795441,182.902267 
	C257.952332,182.870651 248.602737,184.707703 240.044815,189.751373 
	C238.243301,190.813095 236.378586,191.190979 234.330414,191.193665 
	C223.355270,191.208054 212.350327,190.762466 201.574661,193.627304 
	C198.452194,194.457458 197.485580,192.246399 196.929657,189.774307 
	C193.385620,174.014694 184.049362,163.509338 168.686996,158.307358 
	C165.915863,157.368988 163.146042,157.155350 160.332489,157.150101 
	C139.169098,157.110641 118.003746,156.965164 96.842758,157.196503 
	C81.631828,157.362793 67.720810,168.782852 62.011707,182.968002 
	C52.496185,206.610809 70.390671,234.749634 95.530258,236.298828 
	C104.370163,236.843582 113.181549,236.493652 122.000099,236.790314 
	C123.910721,236.854614 126.021416,236.305969 127.923386,238.335831 
	C124.427628,243.927444 120.342598,249.233490 117.617142,255.164322 
	C114.856155,261.172424 110.981720,262.868439 104.713867,262.393799 
	C91.135391,261.365509 78.498634,264.459351 67.854378,273.361298 
	C57.900944,281.685547 52.475880,292.423401 52.275963,305.531799 
	C52.156540,313.362152 52.332073,321.196777 52.240543,329.027924 
	C52.208950,331.731354 53.090736,333.320801 55.815285,334.171143 
	C66.634735,337.548004 77.644699,340.088806 88.951759,340.747559 
	C101.951126,341.504944 101.987556,341.256805 106.291405,353.566803 
	C107.759277,357.765289 109.083221,362.014038 110.779312,367.171448 
	C104.236427,367.171448 98.156548,367.702240 92.200226,367.069641 
	C75.829895,365.330963 59.559700,362.831421 43.935650,357.332458 
	C32.058666,353.152313 25.863384,344.178833 25.873304,331.475067 
	C25.878120,325.309265 25.963980,319.142303 25.874172,312.977905 
	C25.499502,287.259796 34.143639,265.777313 55.248791,250.108643 
	C55.913261,249.615341 56.636070,249.200607 57.791370,248.450989 
	C41.763348,233.942062 33.153381,216.628647 33.686348,195.600052 
	C34.149364,177.331497 41.282158,161.704422 54.643288,148.631958 
M229.488297,101.004890 
	C227.081116,106.059525 226.161240,111.484894 226.207260,116.979561 
	C226.402039,140.234711 245.125717,156.884064 265.746429,156.819687 
	C285.232300,156.758835 304.719177,156.774887 324.204407,156.921280 
	C329.649750,156.962189 334.711456,155.784164 339.721558,153.821289 
	C353.222626,148.531662 365.339966,131.768005 364.416809,117.393845 
	C362.930115,94.244713 348.658813,77.591896 323.643402,76.545731 
	C304.523834,75.746132 285.327667,75.899857 266.195801,76.536728 
	C249.632401,77.088097 237.016098,84.847435 229.488297,101.004890 
z"/>
<path fill="#000000" opacity="1.000000" stroke="none" 
	d="
M103.332901,209.658295 
	C95.505905,212.061951 89.271591,210.317093 85.710030,205.000351 
	C82.498283,200.205841 82.898521,192.122787 86.599472,187.708908 
	C90.544922,183.003433 95.680397,181.763260 101.417282,183.124451 
	C106.213646,184.262466 110.790871,189.783737 111.197495,194.586594 
	C111.744736,201.050476 109.846344,206.361938 103.332901,209.658295 
z"/>
<path fill="#000000" opacity="1.000000" stroke="none" 
	d="
M490.427490,182.854401 
	C499.606201,182.764893 504.578766,186.523010 506.670380,194.774841 
	C507.917053,199.693115 504.265350,206.714142 499.166016,209.203461 
	C491.535553,212.928375 482.971527,209.784775 479.627533,202.074356 
	C476.802216,195.559723 479.920715,185.037201 490.427490,182.854401 
z"/>
<path fill="#000000" opacity="1.000000" stroke="none" 
	d="
M433.394531,210.403046 
	C425.925171,210.208801 416.812805,203.631134 416.055603,198.227280 
	C415.237366,192.387802 419.164246,185.881821 424.926514,183.530075 
	C430.337006,181.321899 437.538513,183.345505 441.028778,188.054749 
	C447.322357,196.546478 444.196869,206.115860 433.394531,210.403046 
z"/>
<path fill="#000000" opacity="1.000000" stroke="none" 
	d="
M161.349426,209.466705 
	C156.152161,212.170670 152.700211,209.669662 149.687531,206.257324 
	C145.595627,201.622589 145.170700,194.173874 148.493576,189.034973 
	C151.783234,183.947449 158.612091,181.410141 164.246933,183.181717 
	C170.035889,185.001740 174.252792,190.829819 174.250107,196.720383 
	C174.248322,200.662308 172.379898,203.327621 169.096786,205.186310 
	C166.637283,206.578705 164.154556,207.930084 161.349426,209.466705 
z"/>
<path fill="#000000" opacity="1.000000" stroke="none" 
	d="
M211.490555,329.331604 
	C203.204834,316.683380 210.106949,303.888123 218.757523,299.535858 
	C227.699570,295.036896 241.042801,296.644440 247.030609,309.033722 
	C251.789215,318.879669 246.846176,331.958496 236.585938,336.186157 
	C227.041840,340.118744 218.972244,337.996704 211.490555,329.331604 
z"/>
<path fill="#000000" opacity="1.000000" stroke="none" 
	d="
M379.497162,327.262024 
	C374.110199,335.960968 365.305725,339.943787 357.378448,337.531250 
	C347.259186,334.451691 340.387085,326.175751 340.932129,316.894958 
	C341.433563,308.357208 345.925049,301.886475 353.822815,298.797546 
	C361.362091,295.848816 369.040222,296.583038 375.258453,302.406952 
	C381.125000,307.901520 383.691071,314.691040 381.331177,322.767365 
	C380.914886,324.192017 380.230133,325.538208 379.497162,327.262024 
z"/>
<path fill="#000000" opacity="1.000000" stroke="none" 
	d="
M271.448303,128.695709 
	C263.444214,132.328873 257.781403,131.452621 253.106064,126.111572 
	C249.086807,121.520027 248.505676,115.189880 251.523697,109.907532 
	C254.699188,104.349579 259.520874,102.140305 265.732880,102.928986 
	C271.610535,103.675201 275.464294,107.166397 277.158661,112.677193 
	C279.130585,119.090775 277.070251,124.412766 271.448303,128.695709 
z"/>
<path fill="#000000" opacity="1.000000" stroke="none" 
	d="
M337.148193,126.025848 
	C330.186401,132.199478 323.619598,132.722702 317.567139,127.868088 
	C312.552826,123.846146 310.907043,115.882225 313.922302,110.230560 
	C317.721588,103.109283 326.798981,100.622787 333.689880,104.815773 
	C340.852692,109.174210 342.397247,117.921410 337.148193,126.025848 
z"/>
</svg>